<svg width="158" height="46" viewBox="0 0 158 46" fill="none" xmlns="http://www.w3.org/2000/svg">
<path d="M26.6228 26.216C26.6228 27.976 26.1748 29.512 25.2788 30.824C24.3828 32.136 23.1668 33.16 21.6308 33.896C20.1268 34.632 18.4628 35 16.6388 35H0.462813V0.919998H17.4068C19.0068 0.919998 20.3828 1.352 21.5348 2.216C22.7188 3.048 23.6148 4.136 24.2228 5.48C24.8628 6.792 25.1828 8.168 25.1828 9.608C25.1828 11.272 24.7508 12.84 23.8868 14.312C23.0548 15.752 21.8548 16.824 20.2868 17.528C22.2388 18.104 23.7748 19.176 24.8948 20.744C26.0468 22.28 26.6228 24.104 26.6228 26.216ZM22.2548 25.448C22.2548 24.392 22.0148 23.416 21.5348 22.52C21.0868 21.624 20.4628 20.904 19.6628 20.36C18.8948 19.816 17.9988 19.544 16.9748 19.544H4.78281V31.256H16.6388C17.6948 31.256 18.6388 30.984 19.4708 30.44C20.3348 29.896 21.0068 29.192 21.4868 28.328C21.9988 27.432 22.2548 26.472 22.2548 25.448ZM4.78281 4.664V16.04H15.6308C16.6548 16.04 17.5508 15.784 18.3188 15.272C19.1188 14.76 19.7428 14.072 20.1908 13.208C20.6708 12.344 20.9108 11.4 20.9108 10.376C20.9108 9.288 20.6868 8.328 20.2388 7.496C19.8228 6.632 19.2308 5.944 18.4628 5.432C17.7268 4.92 16.8788 4.664 15.9188 4.664H4.78281ZM32.8178 41.816C33.2338 41.848 33.6498 41.88 34.0658 41.912C34.4818 41.976 34.8018 42.008 35.0258 42.008C35.5378 42.008 35.9858 41.832 36.3698 41.48C36.7538 41.128 37.1698 40.44 37.6178 39.416C38.0978 38.424 38.7058 36.952 39.4418 35L28.8338 9.944H33.2978L41.7458 30.728L49.3778 9.944H53.5538L41.3618 41.576C41.0738 42.312 40.6418 43 40.0658 43.64C39.5218 44.312 38.8178 44.84 37.9538 45.224C37.0898 45.608 36.0498 45.8 34.8338 45.8C34.5458 45.8 34.2418 45.784 33.9218 45.752C33.6338 45.72 33.2658 45.656 32.8178 45.56V41.816ZM68.0194 35.48C66.1314 35.48 64.4034 35.144 62.8354 34.472C61.2994 33.768 59.9554 32.824 58.8034 31.64C57.6834 30.424 56.8034 29.032 56.1634 27.464C55.5554 25.896 55.2514 24.232 55.2514 22.472C55.2514 20.104 55.7954 17.944 56.8834 15.992C57.9714 14.04 59.4754 12.472 61.3954 11.288C63.3474 10.104 65.5714 9.512 68.0674 9.512C70.5954 9.512 72.7874 10.12 74.6434 11.336C76.5314 12.52 77.9874 14.088 79.0114 16.04C80.0674 17.96 80.5954 20.04 80.5954 22.28C80.5954 22.6 80.5794 22.92 80.5474 23.24C80.5474 23.528 80.5314 23.752 80.4994 23.912H59.7154C59.8434 25.544 60.2914 27 61.0594 28.28C61.8594 29.528 62.8834 30.52 64.1314 31.256C65.3794 31.96 66.7234 32.312 68.1634 32.312C69.6994 32.312 71.1394 31.928 72.4834 31.16C73.8594 30.392 74.8034 29.384 75.3154 28.136L78.9634 29.144C78.4194 30.36 77.6034 31.448 76.5154 32.408C75.4594 33.368 74.1954 34.12 72.7234 34.664C71.2834 35.208 69.7154 35.48 68.0194 35.48ZM59.5714 20.984H76.6594C76.5314 19.352 76.0674 17.912 75.2674 16.664C74.4674 15.416 73.4434 14.44 72.1954 13.736C70.9474 13.032 69.5714 12.68 68.0674 12.68C66.5954 12.68 65.2354 13.032 63.9874 13.736C62.7394 14.44 61.7154 15.416 60.9154 16.664C60.1474 17.912 59.6994 19.352 59.5714 20.984ZM83.7548 17.72C83.7548 15.64 84.1068 13.608 84.8108 11.624C85.5468 9.608 86.6028 7.784 87.9788 6.152C89.3868 4.488 91.0988 3.176 93.1148 2.216C95.1308 1.224 97.4188 0.727998 99.9788 0.727998C103.019 0.727998 105.627 1.432 107.803 2.84C109.979 4.216 111.595 5.992 112.651 8.168L109.243 10.376C108.571 8.936 107.707 7.8 106.651 6.968C105.627 6.104 104.507 5.496 103.291 5.144C102.107 4.792 100.939 4.616 99.7868 4.616C97.8988 4.616 96.2188 5 94.7468 5.768C93.3068 6.536 92.0908 7.56 91.0988 8.84C90.1068 10.12 89.3548 11.56 88.8428 13.16C88.3628 14.728 88.1228 16.312 88.1228 17.912C88.1228 19.672 88.4108 21.368 88.9868 23C89.5948 24.632 90.4268 26.072 91.4828 27.32C92.5388 28.568 93.7868 29.56 95.2268 30.296C96.6668 31.032 98.2348 31.4 99.9308 31.4C101.115 31.4 102.331 31.192 103.579 30.776C104.827 30.36 105.995 29.72 107.083 28.856C108.171 27.96 109.035 26.808 109.675 25.4L113.275 27.368C112.571 29.064 111.483 30.504 110.011 31.688C108.539 32.872 106.891 33.768 105.067 34.376C103.275 34.984 101.499 35.288 99.7388 35.288C97.4028 35.288 95.2588 34.792 93.3068 33.8C91.3548 32.776 89.6588 31.432 88.2188 29.768C86.8108 28.072 85.7068 26.184 84.9068 24.104C84.1388 21.992 83.7548 19.864 83.7548 17.72ZM116.042 27.752C116.042 26.152 116.49 24.776 117.386 23.624C118.314 22.44 119.578 21.528 121.178 20.888C122.778 20.248 124.634 19.928 126.746 19.928C127.866 19.928 129.05 20.024 130.298 20.216C131.546 20.376 132.65 20.632 133.61 20.984V19.16C133.61 17.24 133.034 15.736 131.882 14.648C130.73 13.528 129.098 12.968 126.986 12.968C125.61 12.968 124.282 13.224 123.002 13.736C121.754 14.216 120.426 14.92 119.018 15.848L117.482 12.872C119.114 11.752 120.746 10.92 122.378 10.376C124.01 9.8 125.706 9.512 127.466 9.512C130.666 9.512 133.194 10.408 135.05 12.2C136.906 13.96 137.834 16.424 137.834 19.592V30.2C137.834 30.712 137.93 31.096 138.122 31.352C138.346 31.576 138.698 31.704 139.178 31.736V35C138.762 35.064 138.394 35.112 138.074 35.144C137.786 35.176 137.546 35.192 137.354 35.192C136.362 35.192 135.61 34.92 135.098 34.376C134.618 33.832 134.346 33.256 134.282 32.648L134.186 31.064C133.098 32.472 131.674 33.56 129.914 34.328C128.154 35.096 126.41 35.48 124.682 35.48C123.018 35.48 121.53 35.144 120.218 34.472C118.906 33.768 117.882 32.84 117.146 31.688C116.41 30.504 116.042 29.192 116.042 27.752ZM132.362 29.528C132.746 29.08 133.05 28.632 133.274 28.184C133.498 27.704 133.61 27.304 133.61 26.984V23.864C132.618 23.48 131.578 23.192 130.49 23C129.402 22.776 128.33 22.664 127.274 22.664C125.13 22.664 123.386 23.096 122.042 23.96C120.73 24.792 120.074 25.944 120.074 27.416C120.074 28.216 120.282 29 120.698 29.768C121.146 30.504 121.786 31.112 122.618 31.592C123.482 32.072 124.538 32.312 125.786 32.312C127.098 32.312 128.346 32.056 129.53 31.544C130.714 31 131.658 30.328 132.362 29.528ZM157.836 13.64C155.724 13.672 153.852 14.216 152.22 15.272C150.62 16.296 149.484 17.72 148.812 19.544V35H144.588V9.944H148.524V15.752C149.388 14.024 150.524 12.632 151.932 11.576C153.372 10.488 154.876 9.88 156.444 9.752C156.764 9.752 157.036 9.752 157.26 9.752C157.484 9.752 157.676 9.768 157.836 9.8V13.64Z" fill="white"/>
</svg>
