<svg width="22" height="38" viewBox="0 0 22 38" fill="none" xmlns="http://www.w3.org/2000/svg">
<path d="M20.7425 36.1925C21.0438 35.8918 21.2828 35.5347 21.4459 35.1415C21.609 34.7484 21.6929 34.3269 21.6929 33.9012C21.6929 33.4756 21.609 33.0541 21.4459 32.661C21.2828 32.2678 21.0438 31.9107 20.7425 31.61L8.13249 19L20.7425 6.39C21.3502 5.78232 21.6916 4.95814 21.6916 4.09875C21.6916 3.23936 21.3502 2.41517 20.7425 1.80749C20.1348 1.19982 19.3106 0.858433 18.4512 0.858433C17.5919 0.858433 16.7677 1.19982 16.16 1.80749L1.24249 16.725C0.941202 17.0257 0.702172 17.3828 0.539083 17.776C0.375993 18.1691 0.292048 18.5906 0.292048 19.0162C0.292048 19.4419 0.375993 19.8634 0.539083 20.2565C0.702172 20.6497 0.941202 21.0068 1.24249 21.3075L16.16 36.225C17.395 37.46 19.475 37.46 20.7425 36.1925Z" fill="#4DBCE9"/>
</svg>
